<svg id="visual" viewBox="0 0 800 200" width="800" height="200" xmlns="http://www.w3.org/2000/svg" xmlns:xlink="http://www.w3.org/1999/xlink" version="1.1"><path d="M0 31L12.2 30.3C24.3 29.7 48.7 28.3 72.8 32C97 35.7 121 44.3 145.2 47.7C169.3 51 193.7 49 218 50C242.3 51 266.7 55 291 54C315.3 53 339.7 47 363.8 41.3C388 35.7 412 30.3 436.2 31C460.3 31.7 484.7 38.3 509 43C533.3 47.7 557.7 50.3 582 48.7C606.3 47 630.7 41 654.8 40.7C679 40.3 703 45.7 727.2 46.3C751.3 47 775.7 43 787.8 41L800 39L800 0L787.8 0C775.7 0 751.3 0 727.2 0C703 0 679 0 654.8 0C630.7 0 606.3 0 582 0C557.7 0 533.3 0 509 0C484.7 0 460.3 0 436.2 0C412 0 388 0 363.8 0C339.7 0 315.3 0 291 0C266.7 0 242.3 0 218 0C193.7 0 169.3 0 145.2 0C121 0 97 0 72.8 0C48.7 0 24.3 0 12.2 0L0 0Z" fill="#0c7075"></path><path d="M0 79L12.2 75.7C24.3 72.3 48.7 65.7 72.8 69C97 72.3 121 85.7 145.2 89.7C169.3 93.7 193.7 88.3 218 91.3C242.3 94.3 266.7 105.7 291 106.3C315.3 107 339.7 97 363.8 88.7C388 80.3 412 73.7 436.2 71C460.3 68.3 484.7 69.7 509 74.3C533.3 79 557.7 87 582 91.7C606.3 96.3 630.7 97.7 654.8 99.7C679 101.7 703 104.3 727.2 102.7C751.3 101 775.7 95 787.8 92L800 89L800 37L787.8 39C775.7 41 751.3 45 727.2 44.3C703 43.7 679 38.3 654.8 38.7C630.7 39 606.3 45 582 46.7C557.7 48.3 533.3 45.7 509 41C484.7 36.3 460.3 29.7 436.2 29C412 28.3 388 33.7 363.8 39.3C339.7 45 315.3 51 291 52C266.7 53 242.3 49 218 48C193.7 47 169.3 49 145.2 45.7C121 42.3 97 33.7 72.8 30C48.7 26.3 24.3 27.7 12.2 28.3L0 29Z" fill="#0c575f"></path><path d="M0 161L12.2 161.3C24.3 161.7 48.7 162.3 72.8 161.3C97 160.3 121 157.7 145.2 158.3C169.3 159 193.7 163 218 164.3C242.3 165.7 266.7 164.3 291 161C315.3 157.7 339.7 152.3 363.8 148C388 143.7 412 140.3 436.2 139C460.3 137.7 484.7 138.3 509 139C533.3 139.7 557.7 140.3 582 143C606.3 145.7 630.7 150.3 654.8 153.3C679 156.3 703 157.7 727.2 157.3C751.3 157 775.7 155 787.8 154L800 153L800 87L787.8 90C775.7 93 751.3 99 727.2 100.7C703 102.3 679 99.7 654.8 97.7C630.7 95.7 606.3 94.3 582 89.7C557.7 85 533.3 77 509 72.3C484.7 67.7 460.3 66.3 436.2 69C412 71.7 388 78.3 363.8 86.7C339.7 95 315.3 105 291 104.3C266.7 103.7 242.3 92.3 218 89.3C193.7 86.3 169.3 91.7 145.2 87.7C121 83.7 97 70.3 72.8 67C48.7 63.7 24.3 70.3 12.2 73.7L0 77Z" fill="#0d4048"></path><path d="M0 191L12.2 189.3C24.3 187.7 48.7 184.3 72.8 183.7C97 183 121 185 145.2 184.3C169.3 183.7 193.7 180.3 218 179C242.3 177.7 266.7 178.3 291 177.3C315.3 176.3 339.7 173.7 363.8 169.7C388 165.7 412 160.3 436.2 159.7C460.3 159 484.7 163 509 164.7C533.3 166.3 557.7 165.7 582 166C606.3 166.3 630.7 167.7 654.8 171.7C679 175.7 703 182.3 727.2 183.7C751.3 185 775.7 181 787.8 179L800 177L800 151L787.8 152C775.7 153 751.3 155 727.2 155.3C703 155.7 679 154.3 654.8 151.3C630.7 148.3 606.3 143.7 582 141C557.7 138.3 533.3 137.7 509 137C484.7 136.3 460.3 135.7 436.2 137C412 138.3 388 141.7 363.8 146C339.7 150.3 315.3 155.7 291 159C266.7 162.3 242.3 163.7 218 162.3C193.7 161 169.3 157 145.2 156.3C121 155.7 97 158.3 72.8 159.3C48.7 160.3 24.3 159.7 12.2 159.3L0 159Z" fill="#0c2a31"></path><path d="M0 201L12.2 201C24.3 201 48.7 201 72.8 201C97 201 121 201 145.2 201C169.3 201 193.7 201 218 201C242.3 201 266.7 201 291 201C315.3 201 339.7 201 363.8 201C388 201 412 201 436.2 201C460.3 201 484.7 201 509 201C533.3 201 557.7 201 582 201C606.3 201 630.7 201 654.8 201C679 201 703 201 727.2 201C751.3 201 775.7 201 787.8 201L800 201L800 175L787.8 177C775.7 179 751.3 183 727.2 181.7C703 180.3 679 173.7 654.8 169.7C630.7 165.7 606.3 164.3 582 164C557.7 163.7 533.3 164.3 509 162.7C484.7 161 460.3 157 436.2 157.7C412 158.3 388 163.7 363.8 167.7C339.7 171.7 315.3 174.3 291 175.3C266.7 176.3 242.3 175.7 218 177C193.7 178.3 169.3 181.7 145.2 182.3C121 183 97 181 72.8 181.7C48.7 182.3 24.3 185.7 12.2 187.3L0 189Z" fill="#05161a"></path></svg>